<svg width="174" height="174" viewBox="0 0 174 174" fill="none" xmlns="http://www.w3.org/2000/svg">
<g filter="url(#filter0_d)">
<path d="M168 83C168 127.77 131.77 164 87 164C42.2296 164 6 127.77 6 83C6 38.2296 42.2296 2 87 2C131.77 2 168 38.2296 168 83Z" fill="#FAAE41"/>
<path d="M87 165C132.323 165 169 128.323 169 83C169 37.6773 132.323 1 87 1C41.6773 1 5 37.6773 5 83C5 128.323 41.6773 165 87 165Z" stroke="white" stroke-width="2"/>
</g>
<mask id="mask0" mask-type="alpha" maskUnits="userSpaceOnUse" x="6" y="2" width="162" height="162">
<path d="M168 83C168 127.77 131.77 164 87 164C42.2296 164 6 127.77 6 83C6 38.2296 42.2296 2 87 2C131.77 2 168 38.2296 168 83Z" fill="#F9B233"/>
</mask>
<g mask="url(#mask0)">
<path d="M134.663 130.939C129.291 124.602 86.1734 110.689 86.1734 110.689C86.1734 110.689 44.1581 125.98 37.8214 130.939C31.4847 135.76 29.1428 166.617 29.1428 166.617H142.378C142.24 166.617 140.173 137.276 134.663 130.939Z" fill="#004B74"/>
<path d="M105.873 119.505L86.3115 127.082L66.6125 119.505V109.449C66.6125 109.449 75.5666 106.281 86.7248 106.281C97.883 106.281 105.873 109.449 105.873 109.449V119.505Z" fill="#013958"/>
<path d="M102.842 110.413L86.3109 117.852L69.6426 110.413V97.1885H102.842V110.413Z" fill="#DDA778"/>
<path d="M119.786 71.4285V53.3826C119.786 28.0357 109.592 11.0918 86.7246 11.0918C63.7195 11.0918 53.6633 28.0357 53.6633 53.3826V71.4285C53.6633 71.4285 58.7603 67.2959 63.3062 62.0612C65.3725 59.7193 58.347 46.7704 60.4133 41.2602C63.0307 34.6479 69.7807 29.9642 69.7807 29.9642C69.7807 29.9642 72.5358 33.1326 84.9337 34.3724C97.6072 35.4745 102.015 28.5867 102.015 28.5867C102.015 28.5867 103.117 57.5153 105.873 61.2347C111.934 69.3622 119.786 71.4285 119.786 71.4285Z" fill="black"/>
<path d="M121.439 63.8518C121.439 69.4997 117.444 77.214 114.689 77.214C111.934 77.214 109.868 72.6681 109.868 67.0201C109.868 61.3722 112.623 58.4793 114.689 56.8263C117.444 54.7599 121.439 56.8263 121.439 63.8518Z" fill="#F9BB8D"/>
<path d="M51.7341 63.8518C51.7341 69.4997 55.729 77.214 58.4841 77.214C61.2392 77.214 63.3056 72.6681 63.3056 67.0201C63.3056 61.3722 60.5505 58.4793 58.4841 56.8263C55.8668 54.7599 51.7341 56.8263 51.7341 63.8518Z" fill="#F9BB8D"/>
<path d="M86.725 19.2195C67.8525 19.2195 59.4495 32.444 59.4495 52.2807C59.4495 62.3368 59.4495 70.1889 59.4495 77.0766C59.4495 80.6583 60.827 90.0256 62.2046 92.9185C66.7505 102.148 79.975 112.342 86.174 112.342C92.5107 112.342 107.388 102.148 110.97 93.4695C112.347 90.0256 114 79.694 114 75.4236C114 68.9491 114 61.5103 114 52.2807C114 32.444 105.597 19.2195 86.725 19.2195Z" fill="#F9BB8D"/>
<path d="M114 66.3313L115.653 55.9997C116.893 32.7191 105.597 15.3619 86.7247 15.3619C67.8522 15.3619 57.5206 35.0609 58.2094 55.9997L59.4492 66.3313C59.4492 66.3313 59.4492 58.617 63.3063 54.4844C64.9594 52.6936 63.3063 46.9079 65.0971 42.6374C67.3012 37.5405 72.8114 33.8211 72.8114 33.8211C72.8114 33.8211 75.1532 36.3007 85.2094 37.265C95.6788 38.2293 99.2604 32.7191 99.2604 32.7191C99.2604 32.7191 105.459 33.1323 108.903 41.1221C111.107 46.2191 109.454 48.6987 109.179 51.867C109.041 55.1732 114 66.3313 114 66.3313Z" fill="black"/>
</g>
<defs>
<filter id="filter0_d" x="0" y="0" width="174" height="174" filterUnits="userSpaceOnUse" color-interpolation-filters="sRGB">
<feFlood flood-opacity="0" result="BackgroundImageFix"/>
<feColorMatrix in="SourceAlpha" type="matrix" values="0 0 0 0 0 0 0 0 0 0 0 0 0 0 0 0 0 0 127 0"/>
<feOffset dy="4"/>
<feGaussianBlur stdDeviation="2"/>
<feColorMatrix type="matrix" values="0 0 0 0 0 0 0 0 0 0 0 0 0 0 0 0 0 0 0.25 0"/>
<feBlend mode="normal" in2="BackgroundImageFix" result="effect1_dropShadow"/>
<feBlend mode="normal" in="SourceGraphic" in2="effect1_dropShadow" result="shape"/>
</filter>
</defs>
</svg>
