<svg width="20" height="20" viewBox="0 0 20 20" fill="none" xmlns="http://www.w3.org/2000/svg">
<rect width="20" height="20" rx="7" fill="#DDDDDD"/>
<path opacity="0.4" d="M16.1957 13.9946H12.2983C11.888 13.9946 11.6145 14.3365 11.6145 14.6784C11.6145 15.0886 11.888 15.3621 12.2983 15.3621H16.1957C16.606 15.3621 16.8795 15.0203 16.8795 14.6784C16.8795 14.2681 16.606 13.9946 16.1957 13.9946Z" fill="#666666"/>
<path d="M9.56322 5.72096L13.2555 8.72952C13.3239 8.7979 13.3923 8.93463 13.3239 9.003L8.94782 14.6782C8.67432 15.0201 8.26407 15.2252 7.85381 15.2252H5.46065C5.3239 15.2252 5.18714 15.1569 5.18714 15.0201L4.64014 12.6953C4.57176 12.2851 4.64014 11.8064 4.91364 11.4645L9.2897 5.72096C9.35808 5.65258 9.49484 5.65258 9.56322 5.72096Z" fill="#666666"/>
<path opacity="0.4" d="M14.8965 6.95163L14.2127 7.84051C14.1444 7.90888 14.0076 7.97726 13.9392 7.84051C13.0503 7.15675 10.8623 5.37899 10.2469 4.83199C10.1785 4.76361 10.1102 4.62684 10.2469 4.55846L10.9307 3.73794C11.5461 2.98581 12.6401 2.84908 13.3922 3.46446C13.4606 3.46446 13.4606 3.53282 13.529 3.53282L14.5546 4.35334C14.9649 4.62685 15.2384 5.10547 15.3067 5.58411C15.3751 5.99436 15.2384 6.54137 14.8965 6.95163Z" fill="#666666"/>
</svg>
