<svg width="8" height="8" viewBox="0 0 8 8" fill="none" xmlns="http://www.w3.org/2000/svg">
<path opacity="0.4" d="M7.52715 7.09644H4.99382C4.72716 7.09644 4.54938 7.31866 4.54938 7.54088C4.54938 7.80755 4.72716 7.98532 4.99382 7.98532H7.52715C7.79382 7.98532 7.9716 7.7631 7.9716 7.54088C7.9716 7.27421 7.79382 7.09644 7.52715 7.09644Z" fill="white"/>
<path d="M3.21603 1.71864L5.61603 3.6742C5.66047 3.71865 5.70492 3.80752 5.66047 3.85196L2.81602 7.54086C2.63825 7.76308 2.37158 7.89641 2.10492 7.89641H0.549362C0.460474 7.89641 0.371581 7.85197 0.371581 7.76308L0.0160306 6.25197C-0.0284138 5.98531 0.0160279 5.67419 0.193806 5.45197L3.03825 1.71864C3.08269 1.67419 3.17158 1.67419 3.21603 1.71864Z" fill="white"/>
<path opacity="0.4" d="M6.6827 2.51857L6.23826 3.09634C6.19382 3.14079 6.10492 3.18523 6.06048 3.09634C5.4827 2.6519 4.06048 1.49636 3.66048 1.1408C3.61604 1.09636 3.57159 1.00746 3.66048 0.963014L4.10493 0.429675C4.50493 -0.0592137 5.21603 -0.148086 5.70492 0.251914C5.74937 0.251914 5.74937 0.296347 5.79382 0.296347L6.46048 0.829686C6.72715 1.00746 6.90492 1.31857 6.94937 1.62968C6.99381 1.89635 6.90493 2.2519 6.6827 2.51857Z" fill="white"/>
</svg>
